<svg aria-hidden="true" style="position: absolute; width: 0; height: 0; overflow: hidden;" version="1.1" xmlns="http://www.w3.org/2000/svg" xmlns:xlink="http://www.w3.org/1999/xlink">
<defs>
<symbol id="icon-five" viewBox="0 0 32 32">
<path fill="#002b97" style="fill: var(--color1, #002b97)" d="M2.37 0h27.259c1.309 0 2.37 1.061 2.37 2.37v27.259c0 1.309-1.061 2.37-2.37 2.37h-27.259c-1.309 0-2.37-1.061-2.37-2.37v-27.259c0-1.309 1.061-2.37 2.37-2.37z"></path>
<path fill="#fff" style="fill: var(--color2, #fff)" d="M22.933 25.422l-2.356-2.311h-9.467c-1.363 0-2.519-0.474-3.467-1.422s-1.422-2.104-1.422-3.467c0-1.138 0.353-2.151 1.058-3.040 0.705-0.895 1.612-1.467 2.72-1.716 0.047-0.119 0.092-0.234 0.133-0.347 0.059-0.113 0.104-0.234 0.133-0.364l-3.689-3.689 1.244-1.244 16.356 16.356zM11.111 21.333h7.689l-7.156-7.156c-0.030 0.166-0.050 0.329-0.062 0.489-0.018 0.136-0.027 0.284-0.027 0.444h-0.444c-0.859 0-1.591 0.305-2.196 0.916-0.61 0.604-0.916 1.336-0.916 2.196s0.305 1.6 0.916 2.222c0.604 0.593 1.336 0.889 2.196 0.889zM24.533 22l-1.289-1.244c0.255-0.207 0.444-0.447 0.569-0.72s0.187-0.581 0.187-0.924c0-0.622-0.216-1.147-0.649-1.573-0.427-0.433-0.951-0.649-1.573-0.649h-1.333v-1.778c0-1.227-0.433-2.276-1.298-3.147-0.865-0.865-1.914-1.298-3.147-1.298-0.397 0-0.782 0.047-1.156 0.142-0.373 0.101-0.729 0.255-1.067 0.462l-1.289-1.289c0.521-0.356 1.073-0.628 1.653-0.818 0.587-0.184 1.206-0.276 1.858-0.276 1.736 0 3.206 0.604 4.409 1.813 1.209 1.203 1.813 2.673 1.813 4.409 1.025 0.119 1.873 0.563 2.542 1.333 0.676 0.759 1.013 1.647 1.013 2.667 0 0.593-0.11 1.129-0.329 1.609-0.225 0.498-0.53 0.924-0.916 1.28z"></path>
</symbol>
<symbol id="icon-four" viewBox="0 0 32 32">
<path fill="#002b97" style="fill: var(--color1, #002b97)" d="M2.37 0h27.259c1.309 0 2.37 1.061 2.37 2.37v27.259c0 1.309-1.061 2.37-2.37 2.37h-27.259c-1.309 0-2.37-1.061-2.37-2.37v-27.259c0-1.309 1.061-2.37 2.37-2.37z"></path>
<path fill="#fff" style="fill: var(--color2, #fff)" d="M24.485 15.685l-2.263-2.262v-3.201c0-0.118-0.047-0.231-0.13-0.314s-0.196-0.13-0.314-0.13h-3.201l-2.263-2.263c-0.083-0.083-0.196-0.13-0.314-0.13s-0.231 0.047-0.314 0.13l-2.262 2.263h-3.201c-0.118 0-0.231 0.047-0.314 0.13s-0.13 0.196-0.13 0.314v3.201l-2.263 2.263c-0.083 0.083-0.13 0.196-0.13 0.314s0.047 0.231 0.13 0.314l2.263 2.262v3.201c0 0.118 0.047 0.231 0.13 0.314s0.196 0.13 0.314 0.13h3.201l2.263 2.263c0.083 0.083 0.196 0.13 0.314 0.13s0.231-0.047 0.314-0.13l2.262-2.263h3.201c0.118 0 0.231-0.047 0.314-0.13s0.13-0.196 0.13-0.314v-3.201l2.263-2.263c0.083-0.083 0.13-0.196 0.13-0.314s-0.047-0.231-0.13-0.314zM16 19.556c-0.943 0-1.847-0.375-2.514-1.041s-1.041-1.571-1.041-2.514 0.375-1.847 1.041-2.514c0.667-0.667 1.571-1.041 2.514-1.041s1.847 0.375 2.514 1.041c0.667 0.667 1.041 1.571 1.041 2.514s-0.375 1.847-1.041 2.514c-0.667 0.667-1.571 1.041-2.514 1.041z"></path>
</symbol>
<symbol id="icon-three" viewBox="0 0 32 32">
<path fill="#002b97" style="fill: var(--color1, #002b97)" d="M2.37 0h27.259c1.309 0 2.37 1.061 2.37 2.37v27.259c0 1.309-1.061 2.37-2.37 2.37h-27.259c-1.309 0-2.37-1.061-2.37-2.37v-27.259c0-1.309 1.061-2.37 2.37-2.37z"></path>
<path fill="#fff" style="fill: var(--color2, #fff)" d="M18.667 8c0.943 0 1.847 0.375 2.514 1.041s1.041 1.571 1.041 2.514v1.001c0.891 0.238 1.655 0.813 2.131 1.604s0.625 1.735 0.417 2.634-0.756 1.682-1.53 2.184c-0.774 0.502-1.713 0.684-2.618 0.506-0.114-0.023-0.232-0.024-0.347-0.001s-0.224 0.067-0.321 0.131-0.181 0.147-0.246 0.244c-0.065 0.097-0.111 0.206-0.134 0.32s-0.024 0.232-0.001 0.347c0.022 0.115 0.067 0.224 0.131 0.321s0.148 0.181 0.244 0.246c0.097 0.065 0.206 0.111 0.32 0.134 0.612 0.125 1.24 0.141 1.858 0.048-0.152 0.633-0.475 1.212-0.934 1.674s-1.035 0.789-1.667 0.946c-0.632 0.157-1.294 0.138-1.916-0.056s-1.178-0.554-1.609-1.042c-0.431 0.488-0.987 0.848-1.609 1.041s-1.284 0.213-1.915 0.056c-0.632-0.157-1.208-0.484-1.666-0.946s-0.782-1.040-0.934-1.673c0.617 0.093 1.245 0.076 1.857-0.048 0.114-0.023 0.223-0.069 0.32-0.134s0.18-0.149 0.244-0.246 0.109-0.206 0.131-0.321c0.022-0.115 0.022-0.232-0.001-0.347s-0.069-0.223-0.134-0.32c-0.065-0.097-0.149-0.18-0.246-0.244s-0.206-0.109-0.321-0.131c-0.115-0.022-0.232-0.022-0.347 0.001-0.53 0.108-1.077 0.094-1.601-0.041-0.763-0.198-1.439-0.643-1.921-1.266s-0.744-1.389-0.744-2.177 0.262-1.554 0.744-2.177c0.482-0.623 1.158-1.069 1.921-1.266v-1.001c-0-0.722 0.22-1.427 0.63-2.021s0.992-1.049 1.668-1.305c0.676-0.255 1.413-0.299 2.114-0.125s1.332 0.557 1.81 1.099c0.334-0.378 0.744-0.681 1.204-0.889s0.958-0.315 1.463-0.315zM16 10.667c-0.218 0-0.428 0.080-0.591 0.225s-0.267 0.344-0.292 0.56l-0.006 0.104v4.031c-0.541-0.312-1.154-0.476-1.778-0.476-0.236 0-0.462 0.094-0.629 0.26s-0.26 0.393-0.26 0.629 0.094 0.462 0.26 0.629c0.167 0.167 0.393 0.26 0.629 0.26 0.448-0 0.88 0.169 1.209 0.474s0.53 0.723 0.564 1.17l0.004 0.133v1.778c0 0.227 0.087 0.445 0.242 0.609s0.368 0.264 0.594 0.277c0.226 0.013 0.449-0.060 0.623-0.206s0.285-0.352 0.312-0.577l0.006-0.104v-1.783c0.001-0.471 0.189-0.921 0.523-1.254s0.785-0.519 1.255-0.519c0.236 0 0.462-0.094 0.628-0.26s0.26-0.393 0.26-0.629c0-0.236-0.094-0.462-0.26-0.629s-0.393-0.26-0.628-0.26c-0.547-0-1.087 0.126-1.578 0.368l-0.2 0.108v-4.031c0-0.236-0.094-0.462-0.26-0.629s-0.393-0.26-0.628-0.26z"></path>
</symbol>
<symbol id="icon-two" viewBox="0 0 32 32">
<path fill="#002b97" style="fill: var(--color1, #002b97)" d="M2.37 0h27.259c1.309 0 2.37 1.061 2.37 2.37v27.259c0 1.309-1.061 2.37-2.37 2.37h-27.259c-1.309 0-2.37-1.061-2.37-2.37v-27.259c0-1.309 1.061-2.37 2.37-2.37z"></path>
<path fill="#fff" style="fill: var(--color2, #fff)" d="M22.222 18.667c0.178-0.178 0.389-0.267 0.634-0.267s0.456 0.089 0.633 0.267l1.4 1.422c0.178 0.178 0.267 0.385 0.267 0.622s-0.089 0.444-0.267 0.622c-0.178 0.178-0.385 0.267-0.622 0.267s-0.444-0.089-0.622-0.267l-1.422-1.4c-0.178-0.178-0.267-0.389-0.267-0.633s0.089-0.455 0.267-0.634zM23.111 8c0.178 0.178 0.267 0.389 0.267 0.634s-0.089 0.456-0.267 0.633l-1.4 1.4c-0.178 0.178-0.389 0.267-0.633 0.267s-0.455-0.089-0.634-0.267-0.267-0.389-0.267-0.633c0.001-0.244 0.089-0.455 0.267-0.634l1.422-1.4c0.178-0.178 0.385-0.267 0.622-0.267s0.444 0.089 0.622 0.267zM8.889 8c0.178-0.178 0.389-0.267 0.634-0.267s0.456 0.089 0.633 0.267l1.4 1.422c0.178 0.178 0.267 0.385 0.267 0.622s-0.089 0.444-0.267 0.622c-0.178 0.178-0.389 0.267-0.633 0.267s-0.455-0.089-0.634-0.267l-1.4-1.4c-0.178-0.178-0.267-0.389-0.267-0.633s0.089-0.455 0.267-0.634zM9.778 18.667c0.178 0.178 0.267 0.389 0.267 0.634s-0.089 0.456-0.267 0.633l-1.4 1.4c-0.178 0.178-0.389 0.267-0.633 0.267s-0.455-0.089-0.634-0.267c-0.178-0.178-0.267-0.389-0.267-0.633s0.089-0.455 0.267-0.634l1.422-1.4c0.178-0.178 0.385-0.267 0.622-0.267s0.444 0.089 0.622 0.267zM13.2 20.289l2.8-1.689 2.8 1.711-0.733-3.2 2.467-2.133-3.244-0.289-1.289-3.022-1.289 3-3.244 0.289 2.467 2.156-0.733 3.178zM16 20.689l-3.689 2.222c-0.163 0.104-0.333 0.148-0.511 0.133s-0.333-0.074-0.467-0.178c-0.133-0.104-0.237-0.233-0.311-0.388s-0.089-0.329-0.044-0.523l0.978-4.2-3.267-2.822c-0.148-0.133-0.241-0.285-0.277-0.456s-0.026-0.337 0.033-0.5c0.059-0.162 0.148-0.296 0.267-0.4s0.282-0.171 0.489-0.2l4.311-0.378 1.667-3.956c0.074-0.178 0.189-0.311 0.345-0.4s0.315-0.133 0.477-0.133c0.162 0 0.321 0.044 0.477 0.133s0.271 0.222 0.345 0.4l1.667 3.956 4.311 0.378c0.207 0.030 0.37 0.096 0.489 0.2s0.207 0.237 0.267 0.4c0.059 0.163 0.071 0.33 0.034 0.5s-0.129 0.322-0.278 0.455l-3.267 2.822 0.978 4.2c0.044 0.193 0.030 0.367-0.044 0.523s-0.178 0.285-0.311 0.388c-0.133 0.103-0.289 0.162-0.467 0.178s-0.348-0.029-0.511-0.133l-3.689-2.222z"></path>
</symbol>
<symbol id="icon-blue-arrow" viewBox="0 0 33 32">
<path fill="#002b97" style="fill: var(--color1, #002b97)" d="M2.741 0h27.17c1.334 0 2.415 1.081 2.415 2.415v27.17c0 1.334-1.081 2.415-2.415 2.415h-27.17c-1.334 0-2.415-1.081-2.415-2.415v-27.17c0-1.334 1.081-2.415 2.415-2.415z"></path>
<path fill="#fff" style="fill: var(--color2, #fff)" d="M9.383 14.954c-0.805 0.465-0.805 1.627 0 2.092l9.057 5.229c0.805 0.465 1.811-0.116 1.811-1.046v-10.458c0-0.93-1.006-1.511-1.811-1.046l-9.057 5.229z"></path>
</symbol>
<symbol id="icon-one" viewBox="0 0 32 32">
<path fill="#002b97" style="fill: var(--color1, #002b97)" d="M2.37 0h27.259c1.309 0 2.37 1.061 2.37 2.37v27.259c0 1.309-1.061 2.37-2.37 2.37h-27.259c-1.309 0-2.37-1.061-2.37-2.37v-27.259c0-1.309 1.061-2.37 2.37-2.37z"></path>
<path fill="#fff" style="fill: var(--color2, #fff)" d="M8.889 20.621v-2.85c0-0.202 0.069-0.371 0.206-0.508s0.308-0.204 0.512-0.204h4.615c0.203 0 0.374 0.068 0.512 0.204s0.207 0.306 0.206 0.508v2.85c0 0.201-0.069 0.37-0.206 0.507s-0.308 0.204-0.512 0.204h-4.615c-0.203 0-0.374-0.068-0.512-0.204s-0.207-0.305-0.206-0.508zM17.060 20.621v-2.85c0-0.202 0.069-0.371 0.207-0.508s0.308-0.204 0.511-0.204h4.615c0.204 0 0.375 0.068 0.512 0.204s0.206 0.306 0.206 0.508v2.85c0 0.201-0.069 0.37-0.206 0.507s-0.308 0.204-0.512 0.204h-4.615c-0.203 0-0.374-0.068-0.511-0.204s-0.207-0.305-0.207-0.508zM8.889 14.228v-2.85c0-0.201 0.069-0.37 0.206-0.507s0.308-0.204 0.512-0.204h4.615c0.203 0 0.374 0.068 0.512 0.204s0.207 0.305 0.206 0.508v2.851c0 0.201-0.069 0.37-0.206 0.507s-0.309 0.204-0.512 0.204h-4.615c-0.203 0-0.374-0.068-0.512-0.204s-0.207-0.305-0.206-0.508zM17.060 14.227v-2.849c0-0.201 0.069-0.37 0.207-0.507s0.308-0.204 0.511-0.204h4.615c0.204 0 0.375 0.068 0.512 0.204s0.206 0.305 0.206 0.508v2.851c0 0.201-0.069 0.37-0.206 0.507s-0.309 0.204-0.512 0.204h-4.615c-0.203 0-0.374-0.068-0.511-0.204s-0.207-0.307-0.207-0.509z"></path>
</symbol>
<symbol id="icon-google" viewBox="0 0 150 32">
<path d="M116.794 23.978h3.307v-22.47h-3.307v22.47zM146.584 9.602l-3.791 9.742h-0.114l-3.935-9.742h-3.563l5.9 13.616-3.362 7.574h3.447l9.095-21.19h-3.677zM127.827 21.426c-1.085 0-2.595-0.548-2.595-1.909 0-1.733 1.881-2.398 3.506-2.398 1.453 0 2.139 0.318 3.022 0.751-0.257 2.082-2.024 3.555-3.933 3.555zM128.226 9.111c-2.395 0-4.876 1.069-5.9 3.44l2.935 1.242c0.627-1.242 1.795-1.648 3.022-1.648 1.71 0 3.449 1.041 3.478 2.892v0.23c-0.599-0.347-1.881-0.866-3.449-0.866-3.164 0-6.386 1.763-6.386 5.058 0 3.007 2.595 4.945 5.502 4.945 2.224 0 3.451-1.012 4.22-2.198h0.114v1.735h3.192v-8.615c0-3.989-2.935-6.214-6.726-6.214zM107.786 12.338h-4.704v-7.702h4.704c2.472 0 3.876 2.076 3.876 3.85 0 1.742-1.404 3.852-3.876 3.852zM107.701 1.508h-7.925v22.47h3.306v-8.513h4.619c3.665 0 7.269-2.693 7.269-6.98s-3.603-6.978-7.269-6.978zM64.487 21.429c-2.285 0-4.197-1.939-4.197-4.603 0-2.693 1.913-4.663 4.197-4.663 2.256 0 4.025 1.97 4.025 4.663 0 2.664-1.769 4.603-4.025 4.603zM68.285 10.86h-0.115c-0.743-0.897-2.169-1.708-3.968-1.708-3.77 0-7.224 3.358-7.224 7.673 0 4.285 3.454 7.616 7.224 7.616 1.799 0 3.226-0.811 3.968-1.738h0.115v1.102c0 2.925-1.542 4.488-4.027 4.488-2.028 0-3.284-1.477-3.798-2.723l-2.884 1.217c0.828 2.028 3.027 4.517 6.682 4.517 3.883 0 7.168-2.317 7.168-7.963v-13.727h-3.141v1.246zM73.711 23.978h3.313v-22.472h-3.313v22.472zM81.905 16.565c-0.085-2.953 2.256-4.459 3.94-4.459 1.315 0 2.428 0.665 2.799 1.621l-6.739 2.838zM92.185 14.017c-0.627-1.708-2.542-4.864-6.453-4.864-3.883 0-7.109 3.097-7.109 7.645 0 4.285 3.198 7.645 7.48 7.645 3.456 0 5.456-2.143 6.283-3.388l-2.57-1.738c-0.856 1.274-2.028 2.114-3.713 2.114-1.684 0-2.884-0.782-3.655-2.315l10.080-4.229-0.342-0.868zM11.879 11.498v3.243h7.652c-0.229 1.824-0.828 3.156-1.741 4.082-1.115 1.131-2.857 2.376-5.911 2.376-4.713 0-8.396-3.852-8.396-8.63 0-4.779 3.683-8.63 8.396-8.63 2.542 0 4.397 1.014 5.768 2.317l2.256-2.288c-1.914-1.853-4.454-3.273-8.024-3.273-6.453 0-11.879 5.329-11.879 11.874s5.425 11.872 11.879 11.872c3.483 0 6.11-1.159 8.166-3.331 2.114-2.143 2.77-5.153 2.77-7.587 0-0.753-0.057-1.447-0.172-2.026h-10.764zM31.516 21.429c-2.285 0-4.256-1.911-4.256-4.632 0-2.752 1.971-4.634 4.256-4.634 2.283 0 4.254 1.882 4.254 4.634 0 2.721-1.971 4.632-4.254 4.632zM31.516 9.153c-4.171 0-7.568 3.214-7.568 7.645 0 4.402 3.398 7.645 7.568 7.645 4.169 0 7.567-3.243 7.567-7.645 0-4.431-3.398-7.645-7.567-7.645zM48.023 21.429c-2.285 0-4.256-1.911-4.256-4.632 0-2.752 1.971-4.634 4.256-4.634s4.254 1.882 4.254 4.634c0 2.721-1.969 4.632-4.254 4.632zM48.023 9.153c-4.169 0-7.567 3.214-7.567 7.645 0 4.402 3.398 7.645 7.567 7.645s7.567-3.243 7.567-7.645c0-4.431-3.398-7.645-7.567-7.645z"></path>
</symbol>
</defs>
</svg>
